<svg width="70" height="70" viewBox="0 0 70 70" fill="none" xmlns="http://www.w3.org/2000/svg">
<rect opacity="0.4" width="70" height="70" rx="8" fill="#EAEBCA"/>
<path d="M36.3593 19.117L28.4244 27.2941C27.8945 27.8402 27.5937 28.593 27.5937 29.3753V44.1206C27.5937 45.7442 28.8827 47.0726 30.4583 47.0726H43.3488C44.4946 47.0726 45.5259 46.3642 45.9842 45.2867L50.6534 34.0542C51.8565 31.1317 49.7797 27.8845 46.7003 27.8845H38.6079L39.9686 21.1244C40.1118 20.3864 39.897 19.6336 39.3814 19.1023C38.5363 18.2462 37.19 18.2462 36.3593 19.117ZM21.8646 47.0726C23.4401 47.0726 24.7291 45.7442 24.7291 44.1206V32.3126C24.7291 30.6889 23.4401 29.3605 21.8646 29.3605C20.2891 29.3605 19 30.6889 19 32.3126V44.1206C19 45.7442 20.2891 47.0726 21.8646 47.0726Z" fill="#7264D5"/>
</svg>
