<svg width="209" height="38" viewBox="0 0 209 38" fill="none" xmlns="http://www.w3.org/2000/svg">
<path d="M7.64849 1.40207C7.64714 1.40207 7.64562 1.40207 7.64428 1.40207C7.17138 1.40207 6.7266 1.57697 6.39074 1.89483C6.05117 2.21621 5.86414 2.64412 5.86414 3.09967V28.5549C5.86414 29.4884 6.66767 30.2496 7.65556 30.252C11.8202 30.2614 18.7977 31.085 23.6112 35.8643V9.22464C23.6112 8.90822 23.526 8.61096 23.3652 8.36498C19.4145 2.3285 11.8226 1.41133 7.64849 1.40207Z" fill="#7264D5"/>
<path d="M44.136 28.5549V3.09952C44.136 2.64397 43.949 2.21606 43.6094 1.89468C43.2736 1.57682 42.8284 1.40192 42.356 1.40192C42.3545 1.40192 42.353 1.40192 42.3517 1.40192C38.1777 1.41134 30.5858 2.3285 26.635 8.36499C26.4742 8.61097 26.3892 8.90823 26.3892 9.22465V35.8641C31.2026 31.0849 38.1801 30.2613 42.3448 30.2519C43.3325 30.2495 44.136 29.4882 44.136 28.5549Z" fill="#7264D5"/>
<path d="M48.2111 7.27243H46.9138V28.5549C46.9138 30.9382 44.8672 32.8816 42.3513 32.8875C38.8188 32.8955 32.9942 33.5509 28.8691 37.2552C36.0035 35.5978 43.5244 36.6752 47.8106 37.6019C48.3458 37.7176 48.8988 37.5981 49.3276 37.2739C49.7549 36.9504 50 36.4669 50 35.948V8.96971C50.0002 8.03386 49.1975 7.27243 48.2111 7.27243Z" fill="#7264D5"/>
<path d="M3.08621 28.5549V7.27243H1.7889C0.802696 7.27243 0 8.03386 0 8.96971V35.9475C0 36.4666 0.245119 36.9499 0.672393 37.2734C1.10085 37.5975 1.65337 37.7174 2.1894 37.6015C6.47561 36.6746 13.9967 35.5973 21.1307 37.2547C17.0058 33.5506 11.1812 32.8954 7.64868 32.8874C5.13301 32.8816 3.08621 30.9382 3.08621 28.5549Z" fill="#7264D5"/>
<path d="M68.34 30V8.85H77.61C79.91 8.85 81.68 9.34 82.92 10.32C84.16 11.28 84.78 12.62 84.78 14.34C84.78 15.62 84.4 16.7 83.64 17.58C82.88 18.46 81.83 19.05 80.49 19.35V18.9C82.03 19.12 83.22 19.68 84.06 20.58C84.92 21.46 85.35 22.63 85.35 24.09C85.35 25.97 84.7 27.43 83.4 28.47C82.1 29.49 80.29 30 77.97 30H68.34ZM72.06 27.06H77.52C78.82 27.06 79.83 26.82 80.55 26.34C81.27 25.84 81.63 25.03 81.63 23.91C81.63 22.77 81.27 21.96 80.55 21.48C79.83 20.98 78.82 20.73 77.52 20.73H72.06V27.06ZM72.06 17.82H76.95C78.33 17.82 79.35 17.57 80.01 17.07C80.69 16.55 81.03 15.79 81.03 14.79C81.03 13.79 80.69 13.04 80.01 12.54C79.35 12.02 78.33 11.76 76.95 11.76H72.06V17.82ZM95.5929 30.3C94.0329 30.3 92.6829 29.98 91.5429 29.34C90.4029 28.7 89.5129 27.79 88.8729 26.61C88.2529 25.43 87.9429 24.03 87.9429 22.41C87.9429 20.79 88.2529 19.4 88.8729 18.24C89.5129 17.06 90.4029 16.15 91.5429 15.51C92.6829 14.87 94.0329 14.55 95.5929 14.55C97.1529 14.55 98.5029 14.87 99.6429 15.51C100.803 16.15 101.693 17.06 102.313 18.24C102.953 19.4 103.273 20.79 103.273 22.41C103.273 24.03 102.953 25.43 102.313 26.61C101.693 27.79 100.803 28.7 99.6429 29.34C98.5029 29.98 97.1529 30.3 95.5929 30.3ZM95.5929 27.42C96.7729 27.42 97.7129 27.01 98.4129 26.19C99.1129 25.35 99.4629 24.09 99.4629 22.41C99.4629 20.73 99.1129 19.48 98.4129 18.66C97.7129 17.84 96.7729 17.43 95.5929 17.43C94.4129 17.43 93.4729 17.84 92.7729 18.66C92.0729 19.48 91.7229 20.73 91.7229 22.41C91.7229 24.09 92.0729 25.35 92.7729 26.19C93.4729 27.01 94.4129 27.42 95.5929 27.42ZM113.347 30.3C111.787 30.3 110.437 29.98 109.297 29.34C108.157 28.7 107.267 27.79 106.627 26.61C106.007 25.43 105.697 24.03 105.697 22.41C105.697 20.79 106.007 19.4 106.627 18.24C107.267 17.06 108.157 16.15 109.297 15.51C110.437 14.87 111.787 14.55 113.347 14.55C114.907 14.55 116.257 14.87 117.397 15.51C118.557 16.15 119.447 17.06 120.067 18.24C120.707 19.4 121.027 20.79 121.027 22.41C121.027 24.03 120.707 25.43 120.067 26.61C119.447 27.79 118.557 28.7 117.397 29.34C116.257 29.98 114.907 30.3 113.347 30.3ZM113.347 27.42C114.527 27.42 115.467 27.01 116.167 26.19C116.867 25.35 117.217 24.09 117.217 22.41C117.217 20.73 116.867 19.48 116.167 18.66C115.467 17.84 114.527 17.43 113.347 17.43C112.167 17.43 111.227 17.84 110.527 18.66C109.827 19.48 109.477 20.73 109.477 22.41C109.477 24.09 109.827 25.35 110.527 26.19C111.227 27.01 112.167 27.42 113.347 27.42ZM124.261 30V7.92H128.011V21.3H128.071L134.221 14.85H138.751L131.101 22.86L131.131 21.36L139.291 30H134.641L128.071 23.22H128.011V30H124.261ZM141.413 30V8.85H143.903V27.84H154.583V30H141.413ZM163.221 30.27C161.881 30.27 160.711 29.96 159.711 29.34C158.711 28.7 157.931 27.8 157.371 26.64C156.831 25.48 156.561 24.09 156.561 22.47C156.561 20.83 156.831 19.43 157.371 18.27C157.931 17.11 158.711 16.22 159.711 15.6C160.711 14.98 161.881 14.67 163.221 14.67C164.581 14.67 165.751 15.02 166.731 15.72C167.731 16.4 168.391 17.33 168.711 18.51H168.351L168.681 14.94H171.021C170.961 15.52 170.901 16.11 170.841 16.71C170.801 17.29 170.781 17.86 170.781 18.42V30H168.351V26.46H168.681C168.361 27.64 167.701 28.57 166.701 29.25C165.701 29.93 164.541 30.27 163.221 30.27ZM163.701 28.29C165.141 28.29 166.281 27.8 167.121 26.82C167.961 25.82 168.381 24.37 168.381 22.47C168.381 20.55 167.961 19.1 167.121 18.12C166.281 17.12 165.141 16.62 163.701 16.62C162.281 16.62 161.141 17.12 160.281 18.12C159.441 19.1 159.021 20.55 159.021 22.47C159.021 24.37 159.441 25.82 160.281 26.82C161.141 27.8 162.281 28.29 163.701 28.29ZM175.479 30V18.42C175.479 17.86 175.449 17.29 175.389 16.71C175.349 16.11 175.299 15.52 175.239 14.94H177.579L177.879 18.24H177.519C177.959 17.08 178.659 16.2 179.619 15.6C180.599 14.98 181.729 14.67 183.009 14.67C184.789 14.67 186.129 15.15 187.029 16.11C187.949 17.05 188.409 18.54 188.409 20.58V30H185.979V20.73C185.979 19.31 185.689 18.28 185.109 17.64C184.549 16.98 183.669 16.65 182.469 16.65C181.069 16.65 179.959 17.08 179.139 17.94C178.319 18.8 177.909 19.95 177.909 21.39V30H175.479ZM198.758 30.27C197.438 30.27 196.278 29.96 195.278 29.34C194.278 28.7 193.498 27.8 192.938 26.64C192.398 25.48 192.128 24.09 192.128 22.47C192.128 20.83 192.398 19.43 192.938 18.27C193.498 17.11 194.278 16.22 195.278 15.6C196.278 14.98 197.438 14.67 198.758 14.67C200.118 14.67 201.288 15.01 202.268 15.69C203.268 16.37 203.938 17.29 204.278 18.45H203.918V7.92H206.348V30H203.948V26.4H204.278C203.958 27.6 203.298 28.55 202.298 29.25C201.298 29.93 200.118 30.27 198.758 30.27ZM199.268 28.29C200.688 28.29 201.828 27.8 202.688 26.82C203.548 25.82 203.978 24.37 203.978 22.47C203.978 20.55 203.548 19.1 202.688 18.12C201.828 17.12 200.688 16.62 199.268 16.62C197.848 16.62 196.708 17.12 195.848 18.12C195.008 19.1 194.588 20.55 194.588 22.47C194.588 24.37 195.008 25.82 195.848 26.82C196.708 27.8 197.848 28.29 199.268 28.29Z" fill="#7264D5"/>
</svg>
